<?xml version="1.0" encoding="utf-8"?>
<!-- Generator: Adobe Illustrator 24.1.3, SVG Export Plug-In . SVG Version: 6.00 Build 0)  -->
<svg version="1.1" id="Layer_1" xmlns="http://www.w3.org/2000/svg" xmlns:xlink="http://www.w3.org/1999/xlink" x="0px" y="0px"
	 viewBox="0 0 412 412" style="enable-background:new 0 0 412 412;" xml:space="preserve">
<style type="text/css">
	.st0{fill:#FFFFFF;stroke:#FFFFFF;stroke-width:5;stroke-miterlimit:10;}
	.st1{fill:#7E62AB;}
	.st2{fill:#FFFFFF;}
	.st3{fill:#4E59A7;}
	.st4{fill:none;stroke:#7E62AB;stroke-width:5;stroke-linecap:round;stroke-miterlimit:10;}
</style>
<path class="st0" d="M315.1,205.8c0-11.6-9.3-21-20.9-21v42C305.7,226.8,315.1,217.4,315.1,205.8z"/>
<path class="st0" d="M273.9,205.8c0-11.6,9.3-21,20.9-21v42C283.2,226.8,273.9,217.4,273.9,205.8z"/>
<path class="st1" d="M412,206C412,92.2,319.7,0,206,0S0,92.2,0,206c0,64.7,30.3,125.6,82,164.5c3.6-25.1,35-46.3,78.3-55.2
	c-0.3-0.8-0.4-1.7-0.4-2.6v-3.8c0-4.5,3.6-8.1,8.1-8.1l0,0h19.9v-29.4h-46.2c-11.2,0-20.2-9-20.2-20.2l0,0v-24.5
	c-11.4,0-20.6-9.2-20.6-20.6s9.2-20.6,20.6-20.6l0,0v-24.6c0-11.2,9-20.2,20.2-20.2l0,0h44.7v-12.1H205v-25
	c-6.7-1.5-10.9-8.1-9.4-14.8c1.5-6.7,8.1-10.9,14.8-9.4s10.9,8.1,9.4,14.8c-1.2,5.2-5.6,9.1-11,9.6v24.7h18.8v12.1h46.5
	c11.1,0,20.2,9,20.2,20.2v24.5c11.4,0,20.6,9.2,20.6,20.6s-9.2,20.6-20.6,20.6v24.6c0,11.2-9,20.2-20.2,20.2l0,0h-46.2v29.4H246
	c4.5,0,8.1,3.6,8.1,8.1l0,0v3.8c0,1-0.2,2-0.6,3c42.3,9.1,72.8,30,76.4,54.8C381.6,331.5,412,270.6,412,206z"/>
<path class="st2" d="M253.6,315.7c-1.2,3.1-4.2,5.1-7.6,5.1h-78.1c-3.5,0-6.6-2.2-7.7-5.5c-43.3,8.9-74.6,30-78.3,55.2
	c73.4,55.3,174.6,55.3,248,0C326.4,345.7,295.9,324.8,253.6,315.7z"/>
<rect x="187.8" y="271.3" class="st0" width="40" height="29.4"/>
<path class="st0" d="M187.8,303.6v-2.9h-19.9c-4.5,0-8.1,3.6-8.1,8.1l0,0v3.8c0,0.9,0.1,1.8,0.4,2.6c10.7-2.2,21.6-3.6,32.5-4.1
	C189.8,309.8,187.8,306.9,187.8,303.6z"/>
<path class="st0" d="M222.4,311.3c10.5,0.7,20.9,2.2,31.2,4.3c0.4-1,0.6-2,0.6-3v-3.8c0-4.5-3.6-8.1-8.1-8.1l0,0h-18.2v2.9
	C227.9,307.1,225.7,310.2,222.4,311.3z"/>
<path class="st0" d="M168.8,320.9h78.1c3.3,0,6.3-2,7.6-5.1c-10.3-2.2-20.7-3.6-31.2-4.3c-0.9,0.3-1.8,0.5-2.7,0.5h-23.7
	c-1.1,0-2.2-0.2-3.2-0.7c-10.9,0.6-21.8,2-32.5,4.1C162.3,318.7,165.3,320.9,168.8,320.9z"/>
<path class="st0" d="M192.8,311.1c4.3-0.2,8.8-0.4,13.2-0.4c5.6,0,11.1,0.2,16.4,0.6c3.3-1.1,5.5-4.2,5.5-7.7v-2.9h-40v2.9
	C187.9,306.9,189.8,309.8,192.8,311.1z"/>
<path class="st2" d="M192.8,311.1c1,0.4,2.1,0.7,3.2,0.7h23.8c0.9,0,1.8-0.2,2.7-0.5c-5.4-0.4-10.9-0.6-16.4-0.6
	C201.5,310.8,197.1,310.9,192.8,311.1z"/>
<path class="st0" d="M227.9,255.2c0-4.3-3.4-7.9-7.7-8.1c-3.9,6.2-9,9.7-13.2,9.8s-9.3-3.4-13.3-9.4c-3.4,1-5.8,4.2-5.8,7.8v16.1h40
	V255.2z"/>
<rect x="208.9" y="140.6" class="st0" width="18.8" height="4.7"/>
<rect x="186.3" y="140.6" class="st0" width="18.7" height="4.7"/>
<rect x="205" y="128.5" class="st0" width="3.9" height="12.1"/>
<rect x="205" y="145.3" class="st0" width="3.9" height="61.9"/>
<path class="st0" d="M193.6,247.4c-4.3-6.4-7.4-15.8-7.2-27.1h40.4c0.3,11.1-2.6,20.4-6.7,26.8c4.3,0.2,7.7,3.8,7.7,8.1v16.1H274
	c11.2,0,20.2-9,20.2-20.2l0,0v-24.5c-11.4,0-20.6-9.2-20.6-20.6s9.2-20.6,20.6-20.6v-24.6c0-11.1-9-20.2-20.2-20.2h-46.5v4.7h-18.8
	v61.9H205v-61.9h-18.7v-4.7h-44.7c-11.2,0-20.2,9-20.2,20.2l0,0v24.5c11.4,0,20.6,9.2,20.6,20.6s-9.2,20.6-20.6,20.6V251
	c0,11.2,9,20.2,20.2,20.2l0,0h46.2v-16.1C187.8,251.6,190.2,248.5,193.6,247.4z M250.8,183.9c9.2,0.9,16.3,8.5,16.5,17.7
	C267.1,192.4,260,184.7,250.8,183.9c-9.6-0.7-18.5,6.9-19.2,17.1C232.3,190.8,241.2,183.2,250.8,183.9z M166.1,183.9
	c-9.6-0.7-18.5,6.9-19.2,17.1C147.6,190.8,156.5,183.2,166.1,183.9c9.2,0.9,16.3,8.5,16.5,17.7C182.4,192.3,175.3,184.7,166.1,183.9
	L166.1,183.9z"/>
<rect x="205" y="140.6" class="st0" width="3.9" height="4.7"/>
<g>
	<rect x="208.9" y="128.5" class="st0" width="18.8" height="12.1"/>
	<rect x="186.3" y="128.5" class="st0" width="18.7" height="12.1"/>
	<path class="st0" d="M220.1,91.5c0-6.8-5.5-12.4-12.4-12.4c-6.8,0-12.4,5.5-12.4,12.4c0,5.8,4,10.8,9.6,12.1v25h3.9v-24.7
		C215.2,103.2,220.1,97.9,220.1,91.5z"/>
</g>
<path class="st1" d="M226.9,220.3h-40.4c-0.3,11.3,2.9,20.7,7.2,27.1c4,6,9.1,9.5,13.3,9.4s9.3-3.6,13.2-9.8
	C224.3,240.6,227.2,231.4,226.9,220.3z"/>
<path class="st0" d="M142.3,206c0-11.4-9.2-20.6-20.6-20.6l0,0v41.2C133.1,226.6,142.3,217.4,142.3,206L142.3,206z"/>
<path class="st0" d="M101.7,206c0-11.4,9.2-20.6,20.6-20.6l0,0v41.2C110.9,226.6,101.7,217.4,101.7,206L101.7,206z"/>
<path class="st2" d="M71.1,376.8"/>
<path class="st3" d="M77.1,372.8"/>
<path class="st4" d="M229.7,196.4c1.5-10.4,11.1-17.6,21.5-16.2c8.4,1.2,15,7.8,16.2,16.2"/>
<path class="st4" d="M147,196c1.5-10.4,11.1-17.6,21.5-16.1c8.4,1.2,14.9,7.8,16.1,16.1"/>
</svg>
