<svg xmlns="http://www.w3.org/2000/svg" viewBox="0 0 286.59 296.8"><defs><style>.cls-1{fill:#3C9BED;}</style></defs><g id="Layer_2" data-name="Layer 2"><g id="circles"><path class="cls-1" d="M128.83.39a24.24,24.24,0,0,1,10,.27A25.78,25.78,0,0,1,156,15a24.52,24.52,0,0,1-.43,21.55c-6,11.67-18.84,13.77-30.15,15.63a86.78,86.78,0,0,0-12.74,2.72C79.31,65.87,50.73,95.93,43.18,128a119.29,119.29,0,0,0,2.91,66.43A113.39,113.39,0,0,0,85.46,248a106.09,106.09,0,0,0,39.33,18.41h0c23.59,5.65,49.43,3.52,72.75-6,23.8-9.7,43.85-26.73,56.48-48a122.33,122.33,0,0,0,11.15-100.78c-12.93-39.3-44.46-69-86.49-81.5a2.59,2.59,0,0,1,1.33-5l.56.13a141.7,141.7,0,0,1,53.8,25.39,132.15,132.15,0,0,1,37.94,46A137.46,137.46,0,0,1,218.46,276.4a147.22,147.22,0,0,1-94.94,19c-4.27-.59-8.55-1.4-12.73-2.4C48.25,278.05,1.66,219,0,152.46-.25,77.76,53.92,13.8,128.83.39Z"/></g></g></svg>